<?xml version="1.0" encoding="UTF-8" standalone="no"?>
<!DOCTYPE svg PUBLIC "-//W3C//DTD SVG 1.1//EN" "http://www.w3.org/Graphics/SVG/1.1/DTD/svg11.dtd">
<svg width="100%" height="100%" viewBox="0 0 650 471" version="1.1" xmlns="http://www.w3.org/2000/svg" xmlns:xlink="http://www.w3.org/1999/xlink" xml:space="preserve" xmlns:serif="http://www.serif.com/" style="fill-rule:evenodd;clip-rule:evenodd;stroke-linecap:round;stroke-linejoin:round;stroke-miterlimit:1.5;">
    <rect id="Artboard9" x="0" y="0" width="649.203" height="470.359" style="fill:none;"/>
    <g>
        <path d="M240.854,364.744C367.443,343.562 351.516,429.543 438.965,460.733C511.324,486.541 550.048,435.881 513.309,372.302" style="fill:none;stroke:url(#_Linear1);stroke-width:5.5px;"/>
        <g>
            <path d="M109.65,159.454L199.783,184.835L301.988,405.016L211.855,379.636L109.65,159.454Z" style="fill:url(#_Linear2);"/>
            <path d="M219.3,103.145L0,215.763L102.205,435.944L321.504,323.327L219.3,103.145Z" style="fill:rgb(51,51,51);"/>
        </g>
        <g>
            <path d="M649.203,351.264L546.998,131.083L380.052,156.928L482.257,377.109L649.203,351.264Z" style="fill:url(#_Linear3);"/>
            <path d="M479.619,220.182L377.414,0L380.052,156.928L482.257,377.109L479.619,220.182Z" style="fill:rgb(235,235,235);"/>
        </g>
        <g>
            <path d="M214.213,125.006L19.517,224.989L107.292,414.084L301.988,314.101L214.213,125.006Z" style="fill:rgb(235,235,235);"/>
            <g>
                <clipPath id="_clip4">
                    <path d="M214.213,125.006L19.517,224.989L107.292,414.084L301.988,314.101L214.213,125.006Z"/>
                </clipPath>
                <g clip-path="url(#_clip4)">
                    <g>
                        <path d="M168.872,348.178L100.356,358.785L117.274,395.233L185.791,384.626L168.872,348.178Z" style="fill:white;"/>
                        <path d="M118.158,331.289L222.618,315.117L182.114,227.86L77.654,244.031L118.158,331.289Z" style="fill:white;"/>
                        <path d="M197.15,343.8L181.102,346.285L198.021,382.733L214.069,380.249L197.15,343.8Z" style="fill:white;"/>
                        <path d="M276.027,357.27L295.501,354.255L225.098,202.584L205.624,205.599L276.027,357.27Z" style="fill:white;"/>
                    </g>
                    <circle cx="150.136" cy="232.81" r="18.621" style="fill:rgb(218,71,105);"/>
                    <path d="M209.477,262.627L185.791,299.818L225.456,299.818L209.477,262.627Z" style="fill:rgb(71,108,218);"/>
                    <rect x="83.157" y="261.724" width="32.479" height="32.479" style="fill:rgb(71,218,147);"/>
                </g>
            </g>
        </g>
        <g>
            <path d="M301.814,427.002L175.141,446.639L180.028,457.167L306.712,437.555L301.814,427.002Z" style="fill:rgb(51,51,51);"/>
            <path d="M329.604,434.011L311.268,425.565L316.155,436.093L329.604,434.011Z" style="fill:rgb(51,51,51);"/>
            <path d="M165.54,448.099L152.103,450.205L156.99,460.733L170.439,458.651L165.54,448.099Z" style="fill:rgb(51,51,51);"/>
        </g>
    </g>
    <defs>
        <linearGradient id="_Linear1" x1="0" y1="0" x2="1" y2="0" gradientUnits="userSpaceOnUse" gradientTransform="matrix(221.216,-12.2942,12.2942,221.216,294.741,389.403)"><stop offset="0" style="stop-color:rgb(223,223,223);stop-opacity:1"/><stop offset="1" style="stop-color:rgb(235,235,235);stop-opacity:1"/></linearGradient>
        <linearGradient id="_Linear2" x1="0" y1="0" x2="1" y2="0" gradientUnits="userSpaceOnUse" gradientTransform="matrix(90.1333,25.3806,-25.3806,90.1333,211.855,379.635)"><stop offset="0" style="stop-color:rgb(195,195,195);stop-opacity:1"/><stop offset="1" style="stop-color:rgb(235,235,235);stop-opacity:1"/></linearGradient>
        <linearGradient id="_Linear3" x1="0" y1="0" x2="1" y2="0" gradientUnits="userSpaceOnUse" gradientTransform="matrix(165.183,-29.6433,29.6433,165.183,449.958,307.527)"><stop offset="0" style="stop-color:rgb(221,221,221);stop-opacity:1"/><stop offset="1" style="stop-color:rgb(235,235,235);stop-opacity:1"/></linearGradient>
    </defs>
</svg>
