<?xml version="1.0" encoding="UTF-8" standalone="no"?><!DOCTYPE svg PUBLIC "-//W3C//DTD SVG 1.1//EN" "http://www.w3.org/Graphics/SVG/1.1/DTD/svg11.dtd"><svg width="100%" height="100%" viewBox="0 0 436 88" version="1.1" xmlns="http://www.w3.org/2000/svg" xmlns:xlink="http://www.w3.org/1999/xlink" xml:space="preserve" xmlns:serif="http://www.serif.com/" style="fill-rule:evenodd;clip-rule:evenodd;stroke-linejoin:round;stroke-miterlimit:1.41421;"><rect id="Artboard10" x="0" y="0" width="435.62" height="87.744" style="fill:none;"/><clipPath id="_clip1"><rect x="0" y="0" width="435.62" height="87.744"/></clipPath><g clip-path="url(#_clip1)"><path d="M435.62,5.61c0,-3.098 -2.512,-5.61 -5.61,-5.61c-47.183,0 -377.217,0 -424.4,0c-3.098,0 -5.61,2.512 -5.61,5.61c0,15.826 0,60.698 0,76.524c0,3.098 2.512,5.61 5.61,5.61c47.183,0 377.217,0 424.4,0c3.098,0 5.61,-2.512 5.61,-5.61c0,-15.826 0,-60.698 0,-76.524Z" style="fill:#e43fa8;"/><clipPath id="_clip2"><path d="M435.62,5.61c0,-3.098 -2.512,-5.61 -5.61,-5.61c-47.183,0 -377.217,0 -424.4,0c-3.098,0 -5.61,2.512 -5.61,5.61c0,15.826 0,60.698 0,76.524c0,3.098 2.512,5.61 5.61,5.61c47.183,0 377.217,0 424.4,0c3.098,0 5.61,-2.512 5.61,-5.61c0,-15.826 0,-60.698 0,-76.524Z"/></clipPath><g clip-path="url(#_clip2)"><path d="M411.769,32.957l-24.91,16.607l-24.911,-16.607l0,27.522l49.821,0l0,-27.522Zm-24.91,8.49l-21.274,-14.182l42.547,0l-21.273,14.182Z" style="fill:#eff0f2;"/><text x="25.563px" y="53.282px" style="font-family:'Futura-Bold', 'Futura', sans-serif;font-weight:700;font-size:28.516px;fill:#eff0f2;">i<tspan x="35.687px 51.627px 73.043px 94.459px 109.858px 136.321px 154.543px 175.93px 197.317px 209.893px 224.607px 234.731px 254.607px 270.547px 281.669px 297.067px 318.455px " y="53.282px 53.282px 53.282px 53.282px 53.282px 53.282px 53.282px 53.282px 53.282px 53.282px 53.282px 53.282px 53.282px 53.282px 53.282px 53.282px 53.282px ">saac@zoofries.com</tspan></text></g></g></svg>