<?xml version="1.0" encoding="UTF-8" standalone="no"?><!DOCTYPE svg PUBLIC "-//W3C//DTD SVG 1.1//EN" "http://www.w3.org/Graphics/SVG/1.1/DTD/svg11.dtd"><svg width="100%" height="100%" viewBox="0 0 1920 1080" version="1.1" xmlns="http://www.w3.org/2000/svg" xmlns:xlink="http://www.w3.org/1999/xlink" xml:space="preserve" xmlns:serif="http://www.serif.com/" style="fill-rule:evenodd;clip-rule:evenodd;stroke-linejoin:round;stroke-miterlimit:1.41421;"><rect id="Artboard3" x="0" y="0" width="1920" height="1080" style="fill:none;"/><clipPath id="_clip1"><rect x="0" y="0" width="1920" height="1080"/></clipPath><g clip-path="url(#_clip1)"><g><path d="M1179.7,363.086c16.131,-9.921 35.109,-15.637 55.412,-15.637c49.542,0 91.198,34.032 102.832,79.96l-44.132,15.202c-9.644,3.375 -18.968,7.008 -27.994,10.894c-29.231,-30.244 -57.785,-60.499 -86.118,-90.419Z" style="fill:#d56de8;"/><path d="M1100.68,280.521c-165.101,-169.241 -336.585,-316.067 -603.433,-371.813l1547.94,4.508c-0.167,2.574 -0.177,6.066 -0.027,10.555c7.907,237.916 -330.338,373.482 -601.163,467.289c-26.833,-90.319 -110.58,-156.276 -209.611,-156.276c-50.346,0 -96.742,17.047 -133.706,45.737Z" style="fill:url(#_Linear2);"/><path d="M1405.23,589.928c195.187,174.048 492.015,195.24 677.846,105.505c-93.816,145.88 -264.434,243.528 -429.709,295.632c-451.411,142.308 -655.122,-153.244 -561.575,-371.839c38.263,33.042 88.114,53 142.589,53c69.112,0 130.779,-32.123 170.849,-82.298Zm-248.402,-64.827c28.96,-28.287 65.22,-52.779 108.982,-71.596c18.92,19.58 38.12,39.152 57.725,58.594c-18.972,28.626 -51.512,47.525 -88.431,47.525c-30.983,0 -58.882,-13.31 -78.276,-34.523Z" style="fill:url(#_Linear3);"/><path d="M1100.68,280.521c26.381,27.039 52.602,54.654 79.017,82.565c-30.39,18.655 -50.675,52.202 -50.675,90.451c0,27.568 10.538,52.694 27.811,71.564c-28.937,28.245 -50.559,60.251 -65.036,94.125c-46.622,-40.079 -76.132,-99.481 -76.132,-165.721c0,-70.369 33.304,-133.021 85.015,-172.984Z" style="fill:#f4e675;"/><path d="M1100.68,280.521c36.964,-28.69 83.36,-45.737 133.706,-45.737c99.031,0 182.778,65.957 209.611,156.276c-36.944,12.849 -72.65,24.897 -106.056,36.349c-11.634,-45.928 -53.29,-79.96 -102.832,-79.96c-20.303,0 -39.281,5.716 -55.412,15.637c-26.419,-27.908 -52.638,-55.524 -79.017,-82.565Z" style="fill:#d26269;"/><path d="M1323.54,512.099c24.568,24.432 49.771,48.677 75.848,72.585l5.847,5.244c-40.07,50.175 -101.737,82.298 -170.849,82.298c-54.475,0 -104.326,-19.958 -142.589,-53c14.48,-33.868 36.1,-65.888 65.036,-94.125c19.394,21.213 47.293,34.523 78.276,34.523c36.919,0 69.459,-18.899 88.431,-47.525Z" style="fill:#3ef161;"/><path d="M2045.19,-86.784l4.99,0.014c17.455,43.951 73.632,336.049 92.172,417.734c32.745,144.264 4.434,265.48 -59.268,364.469c-187.691,90.633 -488.61,68.107 -683.693,-110.749c-46.884,-42.984 -90.942,-87.06 -133.573,-131.179c9.026,-3.886 18.35,-7.519 27.994,-10.894c272.872,-95.509 760.829,-233.634 751.351,-518.84c-0.15,-4.489 -0.14,-7.981 0.027,-10.555Z" style="fill:url(#_Linear4);"/><path d="M1444,391.06c5.948,19.808 9.111,40.76 9.111,62.445c0,51.604 -17.91,99.058 -47.873,136.423l-5.847,-5.244c-26.077,-23.908 -51.28,-48.153 -75.848,-72.585c11.168,-16.801 17.657,-36.93 17.657,-58.562c0,-9.01 -1.125,-17.759 -3.256,-26.128c33.398,-11.416 69.107,-23.455 106.056,-36.349Z" style="fill:#40596e;"/></g></g><defs><linearGradient id="_Linear2" x1="0" y1="0" x2="1" y2="0" gradientUnits="userSpaceOnUse" gradientTransform="matrix(1085.95,247.947,-247.947,1085.95,724.788,-13.1632)"><stop offset="0" style="stop-color:#f36dd6;stop-opacity:1"/><stop offset="1" style="stop-color:#c46df3;stop-opacity:1"/></linearGradient><linearGradient id="_Linear3" x1="0" y1="0" x2="1" y2="0" gradientUnits="userSpaceOnUse" gradientTransform="matrix(953.499,-382.605,382.605,953.499,1091.8,836.11)"><stop offset="0" style="stop-color:#5af0f3;stop-opacity:1"/><stop offset="1" style="stop-color:#5484ff;stop-opacity:1"/></linearGradient><linearGradient id="_Linear4" x1="0" y1="0" x2="1" y2="0" gradientUnits="userSpaceOnUse" gradientTransform="matrix(845.098,-107.127,107.127,845.098,1453.11,619.226)"><stop offset="0" style="stop-color:#4363f0;stop-opacity:1"/><stop offset="1" style="stop-color:#0086f4;stop-opacity:1"/></linearGradient></defs></svg>