<?xml version="1.0" encoding="UTF-8" standalone="no"?><!DOCTYPE svg PUBLIC "-//W3C//DTD SVG 1.1//EN" "http://www.w3.org/Graphics/SVG/1.1/DTD/svg11.dtd"><svg width="100%" height="100%" viewBox="0 0 1252 860" version="1.1" xmlns="http://www.w3.org/2000/svg" xmlns:xlink="http://www.w3.org/1999/xlink" xml:space="preserve" xmlns:serif="http://www.serif.com/" style="fill-rule:evenodd;clip-rule:evenodd;stroke-linejoin:round;stroke-miterlimit:1.41421;"><rect id="Artboard11" x="0" y="0" width="1251.59" height="859.442" style="fill:none;"/><g><path d="M466.653,374.802c18.545,15.311 37.183,30.321 56.017,44.983c-21.281,4.743 -43.145,9.081 -65.726,12.859c-2.427,-9.595 -2.903,-19.865 -1.104,-30.263c1.751,-10.117 5.49,-19.396 10.813,-27.579Z" style="fill:#c46df3;"/><path d="M600.792,400.039c1.847,8.784 2.083,18.091 0.454,27.503c-2.501,14.455 -9.061,27.2 -18.367,37.239c-20.394,-14.537 -40.41,-29.574 -60.209,-44.996c26.913,-5.991 52.893,-12.629 78.122,-19.746Z" style="fill:#54dce8;"/><path d="M466.658,374.794c15.583,-24.001 44.491,-37.722 74.465,-32.535c30.682,5.309 53.654,28.901 59.667,57.774c-25.216,7.12 -51.202,13.76 -78.12,19.752c-18.825,-14.656 -37.453,-29.66 -56.012,-44.991Z" style="fill:#4d48c7;"/><path d="M456.944,432.644c6.801,27.569 29.291,49.876 59.019,55.02c25.67,4.442 50.558,-4.983 66.916,-22.883c20.067,14.354 40.501,28.268 61.457,41.664c-32.508,41.025 -85.829,63.461 -140.953,53.922c-62.08,-10.742 -108.38,-58.91 -119.698,-117.302c25.252,-2.838 49.643,-6.324 73.259,-10.421Z" style="fill:#f4e675;"/><path d="M431.726,345.734l5.285,4.412l1.274,1.077l3.481,2.893l20.151,16.821l4.736,3.865c-5.323,8.183 -9.062,17.462 -10.813,27.579c-1.799,10.398 -1.323,20.668 1.104,30.263c-23.638,4.047 -48.021,7.552 -73.259,10.421c-3.362,-17.117 -3.692,-35.092 -0.547,-53.264c4.052,-23.42 13.431,-44.594 26.777,-62.561l21.811,18.494Z" style="fill:#da5d5d;"/><path d="M409.921,327.232c32.101,-43.387 86.984,-67.504 143.783,-57.676c59.051,10.218 103.824,54.299 117.79,108.885l-4.551,1.468l-16.394,5.25l-7.441,2.321l-14.918,4.555l-7.063,2.121l-20.337,5.877c-6.013,-28.873 -28.985,-52.465 -59.667,-57.774c-29.974,-5.187 -58.882,8.534 -74.465,32.535c-18.925,-15.576 -37.791,-31.453 -56.737,-47.562Z" style="fill:#3c5468;"/><path d="M671.494,378.441c5.062,19.548 6.123,40.481 2.455,61.681c-4.348,25.127 -14.827,47.669 -29.613,66.323c-20.968,-13.391 -41.41,-27.295 -61.457,-41.664c9.306,-10.039 15.866,-22.784 18.367,-37.239c1.629,-9.412 1.393,-18.719 -0.454,-27.503c24.201,-6.819 47.718,-14.071 70.702,-21.598Z" style="fill:#6fc67f;"/><path d="M0,7.355l0,-7.355l1251.34,0l0,220.399c-224.612,8.883 -383.326,93.688 -579.846,158.027l0.004,0.015l-4.551,1.468c1.518,-0.493 3.034,-0.987 4.547,-1.483c-13.97,-54.579 -58.74,-98.653 -117.786,-108.87c-56.799,-9.828 -111.682,14.289 -143.783,57.676c-120.416,-102.371 -244.405,-214.316 -409.921,-319.877Z" style="fill:url(#_Linear1);"/><path d="M1251.34,220.399l0,474.024c-271.323,-18.338 -453.242,-89.577 -607,-187.978c14.786,-18.654 25.265,-41.196 29.613,-66.323c3.668,-21.2 2.607,-42.133 -2.455,-61.681c196.52,-64.356 355.233,-149.159 579.842,-158.042Z" style="fill:url(#_Linear2);"/><path d="M0,7.375c165.513,105.564 289.507,217.507 409.915,319.865c-13.346,17.967 -22.725,39.141 -26.777,62.561c-3.145,18.172 -2.815,36.147 0.547,53.264c-109.063,12.363 -234.074,12.727 -383.685,-6.948l0,-428.742Z" style="fill:url(#_Linear3);"/></g><defs><linearGradient id="_Linear1" x1="0" y1="0" x2="1" y2="0" gradientUnits="userSpaceOnUse" gradientTransform="matrix(728.667,-392.664,392.664,728.667,522.67,400.039)"><stop offset="0" style="stop-color:#4d48c7;stop-opacity:1"/><stop offset="1" style="stop-color:#7859b2;stop-opacity:1"/></linearGradient><linearGradient id="_Linear2" x1="0" y1="0" x2="1" y2="0" gradientUnits="userSpaceOnUse" gradientTransform="matrix(303.5,-376.605,376.605,303.5,947.836,643.98)"><stop offset="0" style="stop-color:#54dce8;stop-opacity:1"/><stop offset="1" style="stop-color:#758cf4;stop-opacity:1"/></linearGradient><linearGradient id="_Linear3" x1="0" y1="0" x2="1" y2="0" gradientUnits="userSpaceOnUse" gradientTransform="matrix(277.286,273.357,-273.357,277.286,60.1287,101.445)"><stop offset="0" style="stop-color:#c46df3;stop-opacity:1"/><stop offset="1" style="stop-color:#f36dd6;stop-opacity:1"/></linearGradient></defs></svg>