<?xml version="1.0" encoding="UTF-8" standalone="no"?><!DOCTYPE svg PUBLIC "-//W3C//DTD SVG 1.1//EN" "http://www.w3.org/Graphics/SVG/1.1/DTD/svg11.dtd"><svg width="100%" height="100%" viewBox="0 0 340 88" version="1.1" xmlns="http://www.w3.org/2000/svg" xmlns:xlink="http://www.w3.org/1999/xlink" xml:space="preserve" xmlns:serif="http://www.serif.com/" style="fill-rule:evenodd;clip-rule:evenodd;stroke-linejoin:round;stroke-miterlimit:1.41421;"><rect id="Artboard4" x="86.392" y="0" width="252.822" height="87.744" style="fill:none;"/><rect id="Artboard7" x="0" y="0" width="339.214" height="87.744" style="fill:none;"/><clipPath id="_clip1"><rect id="Artboard71" serif:id="Artboard7" x="0" y="0" width="339.214" height="87.744"/></clipPath><g clip-path="url(#_clip1)"><path d="M339.214,5.61c0,-1.488 -0.591,-2.915 -1.643,-3.967c-1.053,-1.052 -2.479,-1.643 -3.967,-1.643c-40.483,0 -287.512,0 -327.994,0c-1.488,0 -2.915,0.591 -3.967,1.643c-1.052,1.052 -1.643,2.479 -1.643,3.967c0,15.826 0,60.698 0,76.524c0,1.487 0.591,2.914 1.643,3.966c1.052,1.052 2.479,1.644 3.967,1.644c40.482,0 287.511,0 327.994,0c1.488,0 2.914,-0.592 3.967,-1.644c1.052,-1.052 1.643,-2.479 1.643,-3.966c0,-15.826 0,-60.698 0,-76.524Z" style="fill:#e43fa8;"/><clipPath id="_clip2"><path d="M339.214,5.61c0,-1.488 -0.591,-2.915 -1.643,-3.967c-1.053,-1.052 -2.479,-1.643 -3.967,-1.643c-40.483,0 -287.512,0 -327.994,0c-1.488,0 -2.915,0.591 -3.967,1.643c-1.052,1.052 -1.643,2.479 -1.643,3.967c0,15.826 0,60.698 0,76.524c0,1.487 0.591,2.914 1.643,3.966c1.052,1.052 2.479,1.644 3.967,1.644c40.482,0 287.511,0 327.994,0c1.488,0 2.914,-0.592 3.967,-1.644c1.052,-1.052 1.643,-2.479 1.643,-3.966c0,-15.826 0,-60.698 0,-76.524Z"/></clipPath><g clip-path="url(#_clip2)"><g><path d="M291.355,33.91c-0.655,-2.684 -2.848,-4.719 -5.574,-5.171c0,0 0,0 -0.001,0c-11.368,-1.888 -22.97,-1.884 -34.338,0.011c-0.14,0.023 -0.278,0.046 -0.414,0.069c-2.427,0.404 -4.384,2.21 -4.981,4.598c-0.053,0.213 -0.107,0.43 -0.162,0.651c-1.61,6.437 -1.61,13.171 0,19.608c0.055,0.221 0.109,0.438 0.162,0.65c0.597,2.388 2.554,4.194 4.981,4.599c0.136,0.022 0.274,0.045 0.414,0.069c11.368,1.894 22.97,1.898 34.338,0.011c0.001,0 0.001,0 0.001,0c2.726,-0.453 4.919,-2.488 5.574,-5.172c0.018,-0.073 0.036,-0.148 0.054,-0.222c1.563,-6.399 1.563,-13.08 0,-19.478c-0.018,-0.075 -0.036,-0.149 -0.054,-0.223Zm-15.692,9.962l-14.105,-7.053l0,14.105l14.105,-7.052Z" style="fill:#eff0f2;"/><text x="41.349px" y="55.407px" style="font-family:'Futura-Bold', 'Futura', sans-serif;font-weight:700;font-size:28.516px;fill:#eff0f2;">O<tspan x="69.153px 89.656px 104.342px 115.463px 148.542px 169.93px 184.644px " y="55.407px 55.407px 55.407px 55.407px 55.407px 55.407px 55.407px ">ur Work</tspan></text></g></g></g></svg>