<?xml version="1.0" encoding="UTF-8" standalone="no"?><!DOCTYPE svg PUBLIC "-//W3C//DTD SVG 1.1//EN" "http://www.w3.org/Graphics/SVG/1.1/DTD/svg11.dtd"><svg width="100%" height="100%" viewBox="0 0 340 88" version="1.1" xmlns="http://www.w3.org/2000/svg" xmlns:xlink="http://www.w3.org/1999/xlink" xml:space="preserve" xmlns:serif="http://www.serif.com/" style="fill-rule:evenodd;clip-rule:evenodd;stroke-linejoin:round;stroke-miterlimit:1.41421;"><rect id="Artboard10" x="0" y="0" width="339.214" height="87.744" style="fill:none;"/><clipPath id="_clip1"><rect x="0" y="0" width="339.214" height="87.744"/></clipPath><g clip-path="url(#_clip1)"><path d="M339.214,5.61c0,-1.488 -0.591,-2.915 -1.643,-3.967c-1.053,-1.052 -2.479,-1.643 -3.967,-1.643c-40.483,0 -287.512,0 -327.994,0c-1.488,0 -2.915,0.591 -3.967,1.643c-1.052,1.052 -1.643,2.479 -1.643,3.967c0,15.826 0,60.698 0,76.524c0,1.487 0.591,2.914 1.643,3.966c1.052,1.052 2.479,1.644 3.967,1.644c40.482,0 287.511,0 327.994,0c1.488,0 2.914,-0.592 3.967,-1.644c1.052,-1.052 1.643,-2.479 1.643,-3.966c0,-15.826 0,-60.698 0,-76.524Z" style="fill:#446cbd;"/><clipPath id="_clip2"><path d="M339.214,5.61c0,-1.488 -0.591,-2.915 -1.643,-3.967c-1.053,-1.052 -2.479,-1.643 -3.967,-1.643c-40.483,0 -287.512,0 -327.994,0c-1.488,0 -2.915,0.591 -3.967,1.643c-1.052,1.052 -1.643,2.479 -1.643,3.967c0,15.826 0,60.698 0,76.524c0,1.487 0.591,2.914 1.643,3.966c1.052,1.052 2.479,1.644 3.967,1.644c40.482,0 287.511,0 327.994,0c1.488,0 2.914,-0.592 3.967,-1.644c1.052,-1.052 1.643,-2.479 1.643,-3.966c0,-15.826 0,-60.698 0,-76.524Z"/></clipPath><g clip-path="url(#_clip2)"><g><path d="M293.612,15.756c-0.71,0.001 -1.285,0.576 -1.285,1.286c0,2.243 0,6.785 0,8.347c0,0.356 -0.083,0.708 -0.242,1.027c-0.164,0.327 -0.372,0.744 -0.497,0.993c-0.071,0.143 -0.109,0.301 -0.108,0.461c0,0.428 0,1.335 0,1.985c0,0.196 -0.078,0.384 -0.217,0.522c-0.139,0.139 -0.327,0.217 -0.523,0.217c-1.304,0 -3.999,0 -5.304,0c-0.408,0 -0.739,0.331 -0.739,0.739c0,2.098 0,8.082 0,10.294c0,0.531 0.229,1.036 0.629,1.386c0.602,0.527 1.507,1.318 2.115,1.85c0.412,0.36 0.647,0.88 0.647,1.427c0,2.563 0,10.129 0,12.692c0,0.546 -0.235,1.066 -0.647,1.426c-0.608,0.532 -1.513,1.324 -2.115,1.851c-0.4,0.35 -0.629,0.854 -0.629,1.385c0,0.977 0,2.579 0,3.513c0,0.408 0.331,0.739 0.739,0.739c2.793,0 12.685,0 15.478,0c0.196,0 0.384,-0.078 0.522,-0.217c0.139,-0.138 0.217,-0.326 0.217,-0.522c0,-4.762 0,-31.063 0,-35.824c0,-0.196 -0.078,-0.384 -0.217,-0.523c-0.138,-0.138 -0.326,-0.216 -0.522,-0.216c-1.305,0 -4,0 -5.304,0c-0.196,0 -0.384,-0.078 -0.523,-0.217c-0.139,-0.138 -0.216,-0.326 -0.216,-0.522c0,-0.879 0,-2.228 0,-2.228c0,0 0,-7.561 0,-10.615c0,-0.333 -0.133,-0.653 -0.369,-0.889c-0.236,-0.235 -0.556,-0.367 -0.889,-0.367c-0.001,0 -0.001,0 -0.001,0Z" style="fill:#eff0f2;"/><text x="31.83px" y="57.458px" style="font-family:'Futura-Bold', 'Futura', sans-serif;font-weight:700;font-size:28.516px;fill:#eff0f2;">5<tspan x="52.647px 73.464px 94.281px 103.891px 124.708px 145.524px 166.341px 175.951px 194.972px 213.564px 234.381px " y="57.458px 57.458px 57.458px 57.458px 57.458px 57.458px 57.458px 57.458px 57.458px 57.458px 57.458px ">80-439-4179</tspan></text></g></g></g></svg>