<?xml version="1.0" encoding="UTF-8" standalone="no"?><!DOCTYPE svg PUBLIC "-//W3C//DTD SVG 1.1//EN" "http://www.w3.org/Graphics/SVG/1.1/DTD/svg11.dtd"><svg width="100%" height="100%" viewBox="0 0 253 88" version="1.1" xmlns="http://www.w3.org/2000/svg" xmlns:xlink="http://www.w3.org/1999/xlink" xml:space="preserve" xmlns:serif="http://www.serif.com/" style="fill-rule:evenodd;clip-rule:evenodd;stroke-linejoin:round;stroke-miterlimit:1.41421;"><rect id="Artboard4" x="0" y="0" width="252.822" height="87.744" style="fill:none;"/><clipPath id="_clip1"><rect x="0" y="0" width="252.822" height="87.744"/></clipPath><g clip-path="url(#_clip1)"><path d="M252.822,5.61c0,-3.098 -2.512,-5.61 -5.61,-5.61c-33.612,0 -207.99,0 -241.602,0c-3.098,0 -5.61,2.512 -5.61,5.61c0,15.826 0,60.698 0,76.524c0,3.098 2.512,5.61 5.61,5.61c33.612,0 207.99,0 241.602,0c3.098,0 5.61,-2.512 5.61,-5.61c0,-15.826 0,-60.698 0,-76.524Z" style="fill:#d3d8ed;"/><clipPath id="_clip2"><path d="M252.822,5.61c0,-3.098 -2.512,-5.61 -5.61,-5.61c-33.612,0 -207.99,0 -241.602,0c-3.098,0 -5.61,2.512 -5.61,5.61c0,15.826 0,60.698 0,76.524c0,3.098 2.512,5.61 5.61,5.61c33.612,0 207.99,0 241.602,0c3.098,0 5.61,-2.512 5.61,-5.61c0,-15.826 0,-60.698 0,-76.524Z"/></clipPath><g clip-path="url(#_clip2)"><text x="48.775px" y="54.622px" style="font-family:'Futura-Bold', 'Futura', sans-serif;font-weight:700;font-size:28.516px;fill:#2e4880;">S<tspan x="68.622px 88.498px 108.374px 119.496px 149.21px 170.597px 185.482px " y="54.622px 54.622px 54.622px 54.622px 54.622px 54.622px 54.622px ">ee more</tspan></text></g></g></svg>