<?xml version="1.0" encoding="UTF-8" standalone="no"?><!DOCTYPE svg PUBLIC "-//W3C//DTD SVG 1.1//EN" "http://www.w3.org/Graphics/SVG/1.1/DTD/svg11.dtd"><svg width="100%" height="100%" viewBox="0 0 613 785" version="1.1" xmlns="http://www.w3.org/2000/svg" xmlns:xlink="http://www.w3.org/1999/xlink" xml:space="preserve" xmlns:serif="http://www.serif.com/" style="fill-rule:evenodd;clip-rule:evenodd;stroke-linejoin:round;stroke-miterlimit:1.41421;"><rect id="Artboard6" x="0" y="0" width="612.728" height="784.803" style="fill:none;"/><clipPath id="_clip1"><rect x="0" y="0" width="612.728" height="784.803"/></clipPath><g clip-path="url(#_clip1)"><g><path d="M6.471,318.656c-36.132,112.08 96.675,81.365 188.939,27.523c62.174,-36.283 92.951,-0.255 47.413,26.932c-34.979,20.884 -93.126,57.592 -50.613,115.044c65.799,88.92 327.749,14.599 385.048,-96.851c46.312,-90.079 -107.76,-43.406 -92.405,-97.174c17.897,-62.666 112.813,-117.995 89.078,-147.093c-44.927,-55.078 -224.172,31.881 -196.278,-15.057c28.674,-48.252 73.361,-78.668 47.954,-101.764c-43.206,-39.275 -398.707,41.239 -381.832,152.79c6.712,44.367 121.756,-32.84 117.851,-6.316c-12.844,87.237 -140.225,95.653 -155.155,141.966Zm606.633,-294.062c-1.581,-37.628 -129.862,-27.377 -128.589,5.722c1.482,38.554 130.087,29.925 128.589,-5.722Z" style="fill:url(#_Radial2);"/><g><path d="M476.36,344.423l-339.213,-101.764l0,339.214l339.213,101.764l0,-339.214Z" style="fill:url(#_Linear3);"/><path d="M340.675,642.932l0,142.469l135.685,-101.764l-135.685,-40.705Z" style="fill:url(#_Linear4);"/><path d="M425.734,242.659l-203.528,-101.764l0,203.528l203.528,-101.764Z" style="fill:#eff0f2;"/></g></g></g><defs><radialGradient id="_Radial2" cx="0" cy="0" r="1" gradientUnits="userSpaceOnUse" gradientTransform="matrix(308.556,0,0,308.556,306.753,256.352)"><stop offset="0" style="stop-color:#2e4880;stop-opacity:1"/><stop offset="1" style="stop-color:#446cbd;stop-opacity:1"/></radialGradient><linearGradient id="_Linear3" x1="0" y1="0" x2="1" y2="0" gradientUnits="userSpaceOnUse" gradientTransform="matrix(2.4296e-14,396.784,-396.784,2.4296e-14,476.36,286.853)"><stop offset="0" style="stop-color:#6ee2a2;stop-opacity:1"/><stop offset="1" style="stop-color:#cfe8d0;stop-opacity:1"/></linearGradient><linearGradient id="_Linear4" x1="0" y1="0" x2="1" y2="0" gradientUnits="userSpaceOnUse" gradientTransform="matrix(1.21229e-14,-197.983,197.983,1.21229e-14,340.675,785.401)"><stop offset="0" style="stop-color:#e46fa8;stop-opacity:1"/><stop offset="1" style="stop-color:#e43fa8;stop-opacity:1"/></linearGradient></defs></svg>